<svg xmlns="http://www.w3.org/2000/svg" viewBox="0 0 64 64">
  <rect rx="12" width="64" height="64" fill="#16a34a"/>
  <g fill="#fff" opacity="0.9">
    <path d="M32 14 C32 14 28 22 28 30 C28 38 32 42 32 42 C32 42 36 38 36 30 C36 22 32 14 32 14Z"/>
    <path d="M32 30 C32 30 24 26 20 22" stroke="#fff" stroke-width="2.5" fill="none" stroke-linecap="round"/>
    <path d="M32 30 C32 30 40 26 44 22" stroke="#fff" stroke-width="2.5" fill="none" stroke-linecap="round"/>
    <path d="M32 36 C32 36 22 34 18 30" stroke="#fff" stroke-width="2" fill="none" stroke-linecap="round"/>
    <path d="M32 36 C32 36 42 34 46 30" stroke="#fff" stroke-width="2" fill="none" stroke-linecap="round"/>
  </g>
  <circle cx="20" cy="22" r="2.5" fill="#86efac"/>
  <circle cx="44" cy="22" r="2.5" fill="#86efac"/>
  <circle cx="18" cy="30" r="2" fill="#86efac"/>
  <circle cx="46" cy="30" r="2" fill="#86efac"/>
</svg>
